<svg xmlns="http://www.w3.org/2000/svg" width="127" height="112" viewBox="0 0 127 112">
    <g fill="none" fill-rule="evenodd">
        <path fill="#C97523" d="M32.51 79.033v26.483H21.4V79.03"/>
        <path fill="#A85613" d="M26.355 79.033v26.483H21.4V79.03"/>
        <ellipse cx="26.955" cy="42.469" fill="#00C45A" rx="26.955" ry="42.375"/>
        <path fill="#09B257" d="M26.955 84.845C12.067 84.845 0 65.872 0 42.47S12.067.094 26.955.094c-6.592 0-11.932 18.974-11.932 42.376 0 23.402 5.34 42.375 11.932 42.375z"/>
        <path fill="#E9EAEF" d="M116.138 57.953v53.953H45.355V57.953l35.59-34.525z"/>
        <path fill="#9EB1B7" d="M98.818 38.904v-9.966h17.696v26.818"/>
        <path fill="#879BA0" d="M98.818 38.904v-9.966h4.25v26.818"/>
        <g fill="#00C45A">
            <path d="M87.767 100.6h35.468a3.633 3.633 0 0 1 3.633 3.633v7.674H84.135v-7.674a3.632 3.632 0 0 1 3.632-3.632zM3.633 100.6h41.139a3.633 3.633 0 0 1 3.632 3.633v7.674H0v-7.674a3.632 3.632 0 0 1 3.633-3.632z"/>
        </g>
        <path fill="#D2D4D8" d="M116.138 60.071v10.085L80.746 36.365l-35.391 33.79V60.072l32.58-31.03 2.811-2.61 2.809 2.61z"/>
        <path fill="#EA4756" d="M80.745 30.752L40.45 69.224l-5.634-4.73 43.12-41.066 2.81-2.61 2.81 2.61 43.12 41.066-5.635 4.73z"/>
        <path fill="#C97523" d="M54.013 71.483h23.343v40.422H54.013z"/>
        <path fill="#8E480E" d="M79.037 111.906h-3.359V73.162H55.694v38.744h-3.359V71.483c0-.928.752-1.68 1.68-1.68h23.343c.928 0 1.68.752 1.68 1.68v40.423z"/>
        <path fill="#A0D9F2" d="M84.136 71.483h26.583v23.343H84.136z"/>
        <path fill="#C97523" d="M84.136 71.483h26.583v7.093H84.136z"/>
        <g fill="#8E480E">
            <path fill-rule="nonzero" d="M110.717 96.506H84.135a1.68 1.68 0 0 1-1.68-1.68V71.483c0-.927.752-1.68 1.68-1.68h26.582c.928 0 1.68.753 1.68 1.68v23.343a1.68 1.68 0 0 1-1.68 1.68zm-24.903-3.36h23.224V73.164H85.814v19.984z"/>
            <path d="M72.112 93.244h-3.388a1.68 1.68 0 1 1 0-3.359h3.388a1.68 1.68 0 1 1 0 3.36z"/>
        </g>
        <circle cx="80.746" cy="53.445" r="6.493" fill="#413740"/>
        <path fill="#8E480E" d="M84.136 76.896h26.583v3.359H84.136z"/>
        <path fill="#EA4756" fill-rule="nonzero" d="M80.746 61.62c-4.507 0-8.173-3.667-8.173-8.174s3.666-8.174 8.173-8.174c4.508 0 8.174 3.667 8.174 8.174s-3.667 8.174-8.174 8.174zm0-12.989a4.82 4.82 0 0 0-4.814 4.815 4.82 4.82 0 0 0 4.814 4.815 4.82 4.82 0 0 0 4.815-4.815 4.82 4.82 0 0 0-4.815-4.815z"/>
        <g fill="#00C45A">
            <path d="M11.627 103.83a1.938 1.938 0 0 1-1.938-1.938V96.99a1.938 1.938 0 1 1 3.876 0v4.902c0 1.07-.867 1.938-1.938 1.938zM5.403 103.83a1.938 1.938 0 0 1-1.938-1.938V96.99a1.938 1.938 0 1 1 3.875 0v4.902c0 1.07-.867 1.938-1.937 1.938zM38.932 103.83a1.938 1.938 0 0 1-1.938-1.938V96.99a1.938 1.938 0 1 1 3.876 0v4.902c0 1.07-.867 1.938-1.938 1.938z"/>
        </g>
    </g>
</svg>
